<svg xmlns="http://www.w3.org/2000/svg" viewBox="0 0 81.78 94.01"><defs><style>.cls-1{fill:#f5f5f5;}.cls-2{fill:#fff;}</style></defs><title>left-cat</title><g id="Calque_2" data-name="Calque 2"><g id="Calque_1-2" data-name="Calque 1"><path d="M76.18.07c1.13,1.78.62,3.65.58,5.42-.23,9.65-.55,19.3-.85,29-.07,2.18,0,4.24,1.26,6.22,9.64,14.89,3.07,34.92-9.74,44.52a42,42,0,0,1-18.62,8,54.15,54.15,0,0,1-23.73-.93c-13.36-3.72-21.13-12.68-24-26C-.6,58.38-.47,50.63,2.56,43.1a8.48,8.48,0,0,0,.59-3.84c-.75-12-1.35-23.92-2-35.88C1.13,2.28.68.9,2.05.28s2.15.58,3,1.25c7,5.32,14.11,10.6,21,16.06,2.39,1.89,4.68,2.84,7.76,2,3.62-.95,7.31-.32,10.89.42a8,8,0,0,0,7.28-2C58.59,12.65,65.27,7.41,71.93,2.15,73.17,1.17,74.24-.34,76.18.07Z"/><path class="cls-1" d="M39,91a41.09,41.09,0,0,1-19.8-4.14,24.63,24.63,0,0,1-10.6-9.57C1.87,65.47.31,53.11,6.85,40.71c6.39-12.12,17.3-18,30.55-18.36S62.15,27.1,70.95,37.21c12.17,14,10.12,33.4-4.47,45C58.86,88.24,50.28,91,39,91Z"/><path class="cls-1" d="M4.13,4.67A8.37,8.37,0,0,1,7.86,6.84c5.92,4.49,11.81,9,17.78,13.59-3.94,2.77-4,2.8-7,.57-3.55-2.61-7.06-5.28-11-8.24-2.2,7.36,1.49,14.32-1,21.49C4.84,31,3.56,13.63,4.13,4.67Z"/><path class="cls-1" d="M52.59,20.89,73.71,4V33.69c-2.94-1.06-2.66-3-2.61-4.72.11-4,.3-8,.42-11.93,0-1.29.19-2.64-.9-3.87-2.13.42-3.37,2.07-4.9,3.22a65.12,65.12,0,0,0-5.81,4.67C57.6,23.25,55.43,23.56,52.59,20.89Z"/><path class="cls-1" d="M60.11,24.44a52.61,52.61,0,0,1,8.39-6.72c.68,3.93.22,7.27.12,11C65.42,27.79,63.11,25.83,60.11,24.44Z"/><path class="cls-1" d="M18.22,24.2l-7.82,5a30,30,0,0,1-.51-11A34.86,34.86,0,0,1,18.22,24.2Z"/><path d="M37.83,69.11c1.44,1.1,1,2.46,1.54,3.48.41.78.92,1.49,1.87,1.31a1.86,1.86,0,0,0,1.45-1.81c.11-2.58.74-5.15-1.44-7.49a22.58,22.58,0,0,1-3.51-6c-1.89-4.09-.5-6.51,3.87-6.78a31.94,31.94,0,0,1,6.47.16c2.77.4,4,2.41,3.08,5.07a21.64,21.64,0,0,1-4,7.44c-2.21,2.53-1.5,5.26-1.37,8A1.45,1.45,0,0,0,47,73.9c1,.18,1.47-.5,1.81-1.31.44-1,.14-2.37,1.58-3.39,1.95,1.5,1.24,3.37.51,5.06a3.83,3.83,0,0,1-4.35,2.58c-1.24-.2-2.22-.87-3.75-.49C38.07,77.54,35.95,74.54,37.83,69.11Z"/><path d="M24.76,41.77c.06-2.68,1.54-4.68,3.48-4.71,2.1,0,3.72,2.2,3.67,5.07,0,2.56-1.62,4.67-3.53,4.73C26.32,46.93,24.69,44.64,24.76,41.77Z"/><path d="M66,42c0,2.66-1.5,4.72-3.41,4.8-2.07.09-3.78-2.22-3.72-5,.05-2.63,1.52-4.65,3.46-4.77C64.47,36.93,66.06,39.07,66,42Z"/><path d="M20,61.06c3.36-4.38,8.67-2.61,13.84-4.53-5-1.82-9.15-3.56-14.24-2,.4-1.83,1.81-2,2.94-2A35.36,35.36,0,0,1,33.21,54.8a2,2,0,0,1,1.45,2.25c-.06,1.28-.79,1.68-1.94,1.71-1.33,0-2.66.1-4,.14C25.68,59,22.64,59.18,20,61.06Z"/><path d="M68.4,54.57c-5.17-1.65-9.52.23-14.58,1.88,5.09,2.11,10.81.14,14.34,4.7-3.77-2.5-8.06-2.23-12.26-2.38-1.3,0-2.72.2-2.88-1.82-.12-1.61,1-1.88,2.07-2.28a26.9,26.9,0,0,1,10.21-1.9C66.43,52.83,67.62,52.84,68.4,54.57Z"/><path d="M34.94,61.27c-5.72,1.95-11.07,1.7-15.28,6.36C21.85,63,26.91,61,34.94,61.27Z"/><path d="M53.87,61.45C60.2,61,65.29,62.85,68,67.08,63.48,63.18,58.51,63,53.87,61.45Z"/><path class="cls-1" d="M44.29,63.45c-2.08-.56-2.48-2.56-3.33-4.08-2.57-4.6-2.11-5.29,3.2-5.26,5.13,0,5.65.9,3.09,5.46C46.46,61,46,62.71,44.29,63.45Z"/><path class="cls-2" d="M29.69,42.22a.75.75,0,0,1,.6,1,.85.85,0,0,1-1.06.6c-.18,0-.36-.5-.37-.77C28.84,42.55,29,42.09,29.69,42.22Z"/><path class="cls-2" d="M61.34,41.74a1.22,1.22,0,0,1,.23,2.38c-.6.17-.85-.31-.93-.81A1.32,1.32,0,0,1,61.34,41.74Z"/></g></g></svg>