<svg xmlns="http://www.w3.org/2000/svg" viewBox="0 0 81.8 94.03"><defs><style>.cls-1{fill:#f5f5f5;}.cls-2{fill:#fff;}</style></defs><title>rigth-cat</title><g id="Calque_2" data-name="Calque 2"><g id="Calque_1-2" data-name="Calque 1"><path d="M5.6.07C4.47,1.85,5,3.72,5,5.49c.23,9.65.55,19.31.85,29,.07,2.18,0,4.24-1.26,6.22C-5,55.56,1.54,75.59,14.35,85.19a42.06,42.06,0,0,0,18.62,8,54.16,54.16,0,0,0,23.74-.93c13.36-3.72,21.13-12.68,24-26,1.68-7.79,1.54-15.54-1.49-23.08a8.48,8.48,0,0,1-.59-3.84c.75-12,1.35-23.93,2-35.89.06-1.1.51-2.48-.87-3.1s-2.15.58-3,1.25c-7,5.32-14.11,10.6-21,16.06-2.39,1.89-4.68,2.84-7.76,2-3.62-.95-7.31-.32-10.9.42a8,8,0,0,1-7.28-2C23.2,12.65,16.51,7.41,9.85,2.15,8.61,1.17,7.54-.34,5.6.07Z"/><path class="cls-1" d="M42.74,91.07a41.1,41.1,0,0,0,19.81-4.14,24.64,24.64,0,0,0,10.61-9.58c6.77-11.87,8.34-24.23,1.79-36.64-6.39-12.12-17.3-18-30.56-18.36S19.63,27.11,10.83,37.22c-12.17,14-10.12,33.4,4.47,45C22.93,88.26,31.5,91,42.74,91.07Z"/><path class="cls-1" d="M77.67,4.68a8.37,8.37,0,0,0-3.73,2.17c-5.92,4.49-11.81,9-17.78,13.59,3.94,2.77,4,2.8,7,.57,3.55-2.62,7.06-5.28,11-8.25,2.2,7.36-1.49,14.33,1,21.49C77,31,78.24,13.63,77.67,4.68Z"/><path class="cls-1" d="M29.19,20.9,8.07,4V33.7c2.94-1.06,2.66-3,2.61-4.72-.11-4-.3-8-.42-11.93,0-1.29-.19-2.64.9-3.87,2.13.42,3.37,2.07,4.9,3.22a65.14,65.14,0,0,1,5.81,4.67C24.18,23.26,26.35,23.56,29.19,20.9Z"/><path class="cls-1" d="M21.67,24.45a52.63,52.63,0,0,0-8.39-6.72c-.68,3.93-.22,7.27-.12,11C16.36,27.8,18.68,25.84,21.67,24.45Z"/><path class="cls-1" d="M63.57,24.2l7.82,5a30,30,0,0,0,.51-11A34.87,34.87,0,0,0,63.57,24.2Z"/><path d="M44,69.13c-1.44,1.1-1,2.46-1.54,3.48-.41.78-.92,1.49-1.87,1.31a1.86,1.86,0,0,1-1.45-1.81c-.11-2.58-.74-5.15,1.44-7.49a22.58,22.58,0,0,0,3.51-6c1.9-4.1.5-6.51-3.87-6.78a32,32,0,0,0-6.47.16c-2.78.4-4,2.41-3.08,5.07a21.65,21.65,0,0,0,4,7.44c2.21,2.53,1.5,5.26,1.37,8a1.45,1.45,0,0,1-1.22,1.39c-1,.18-1.47-.5-1.81-1.31-.44-1-.14-2.37-1.58-3.4-1.95,1.5-1.24,3.37-.51,5.06a3.83,3.83,0,0,0,4.35,2.58c1.24-.2,2.22-.87,3.75-.49C43.72,77.56,45.84,74.55,44,69.13Z"/><path d="M57,41.78C57,39.1,55.5,37.1,53.56,37.07c-2.1,0-3.72,2.2-3.67,5.08,0,2.56,1.62,4.68,3.53,4.73C55.47,46.94,57.1,44.65,57,41.78Z"/><path d="M15.77,42.05c0,2.66,1.5,4.72,3.41,4.8,2.07.09,3.78-2.22,3.72-5-.05-2.63-1.52-4.65-3.46-4.77C17.31,36.93,15.72,39.08,15.77,42.05Z"/><path d="M61.8,61.07C58.44,56.7,53.13,58.46,48,56.54c5-1.83,9.15-3.56,14.24-2-.4-1.83-1.81-2.05-2.94-2a35.36,35.36,0,0,0-10.67,2.24,2,2,0,0,0-1.45,2.25c.06,1.28.79,1.69,1.94,1.71,1.33,0,2.66.1,4,.14C56.11,59,59.15,59.2,61.8,61.07Z"/><path d="M13.38,54.59c5.17-1.65,9.52.23,14.58,1.88-5.09,2.11-10.82.14-14.34,4.7,3.77-2.5,8.06-2.23,12.27-2.38,1.3,0,2.72.2,2.88-1.82.12-1.61-1-1.88-2.07-2.28a26.9,26.9,0,0,0-10.21-1.9C15.35,52.84,14.16,52.85,13.38,54.59Z"/><path d="M46.85,61.29c5.72,1.95,11.07,1.7,15.28,6.36C59.94,63.05,54.88,61,46.85,61.29Z"/><path d="M27.91,61.47c-6.33-.46-11.42,1.39-14.17,5.63C18.3,63.2,23.27,63,27.91,61.47Z"/><path class="cls-1" d="M37.49,63.47c2.09-.56,2.48-2.56,3.33-4.08,2.57-4.61,2.11-5.3-3.2-5.26-5.13,0-5.65.9-3.09,5.46C35.33,61,35.78,62.72,37.49,63.47Z"/><path class="cls-2" d="M52.1,42.23a.75.75,0,0,0-.6,1,.85.85,0,0,0,1.06.6c.18,0,.36-.5.37-.77C52.95,42.56,52.82,42.1,52.1,42.23Z"/><path class="cls-2" d="M20.44,41.75a1.23,1.23,0,0,0-.23,2.38c.6.17.85-.31.93-.81A1.32,1.32,0,0,0,20.44,41.75Z"/></g></g></svg>